# xmcd
#
# Track frame offsets:
#	150
#	19350
#	42762
#	63649
#	81897
#	107235
#	131859
#	149690
#	170634
#	192946
#
# Disc length: 2924 seconds
#
# Revision: 0
# Processed by: cddbd v1.5.2PL0 Copyright (c) Steve Scherf et al.
# Submitted via: EasyCDDAExtractor 11.0.2.1
#
DISCID=990b6a0a
DTITLE=La Colonie Volvox - AEIOU
DYEAR=2012
DGENRE=world
TTITLE0=Fin Amor
TTITLE1=AEIOU
TTITLE2=Le Petit Marcelot
TTITLE3=El Rey de Francia
TTITLE4=Budila Majka Mehmeda
TTITLE5=Yunus
TTITLE6=Sonce
TTITLE7=La Colombina
TTITLE8=The Battle of Evermore
TTITLE9=One More Cup of Coffee
EXTD=
EXTT0=
EXTT1=
EXTT2=
EXTT3=
EXTT4=
EXTT5=
EXTT6=
EXTT7=
EXTT8=
EXTT9=
PLAYORDER=
